<svg width="24" height="24" viewBox="0 0 24 24" fill="none" xmlns="http://www.w3.org/2000/svg">
<path d="M2 3.84375C2 3.37617 2.37471 3 2.84046 3H4.43383C5.20426 3 5.88713 3.45 6.2058 4.125H20.5987C21.5197 4.125 22.1921 5.00391 21.9504 5.89688L20.5146 11.2512C20.217 12.3551 19.2189 13.125 18.0808 13.125H7.97778L8.16688 14.127C8.24392 14.5242 8.59061 14.8125 8.99333 14.8125H19.0894C19.5551 14.8125 19.9298 15.1887 19.9298 15.6562C19.9298 16.1238 19.5551 16.5 19.0894 16.5H8.99333C7.78167 16.5 6.7416 15.6352 6.51748 14.4434L4.71049 4.91602C4.68597 4.78242 4.57041 4.6875 4.43383 4.6875H2.84046C2.37471 4.6875 2 4.31133 2 3.84375ZM6.48246 19.3125C6.48246 19.0909 6.52593 18.8715 6.61041 18.6667C6.69488 18.462 6.8187 18.276 6.97479 18.1193C7.13087 17.9626 7.31618 17.8383 7.52012 17.7535C7.72406 17.6686 7.94264 17.625 8.16338 17.625C8.38412 17.625 8.6027 17.6686 8.80664 17.7535C9.01058 17.8383 9.19588 17.9626 9.35197 18.1193C9.50806 18.276 9.63187 18.462 9.71635 18.6667C9.80082 18.8715 9.8443 19.0909 9.8443 19.3125C9.8443 19.5341 9.80082 19.7535 9.71635 19.9583C9.63187 20.163 9.50806 20.349 9.35197 20.5057C9.19588 20.6624 9.01058 20.7867 8.80664 20.8715C8.6027 20.9564 8.38412 21 8.16338 21C7.94264 21 7.72406 20.9564 7.52012 20.8715C7.31618 20.7867 7.13087 20.6624 6.97479 20.5057C6.8187 20.349 6.69488 20.163 6.61041 19.9583C6.52593 19.7535 6.48246 19.5341 6.48246 19.3125ZM18.2489 17.625C18.6947 17.625 19.1223 17.8028 19.4375 18.1193C19.7527 18.4357 19.9298 18.8649 19.9298 19.3125C19.9298 19.7601 19.7527 20.1893 19.4375 20.5057C19.1223 20.8222 18.6947 21 18.2489 21C17.8031 21 17.3755 20.8222 17.0603 20.5057C16.7451 20.1893 16.568 19.7601 16.568 19.3125C16.568 18.8649 16.7451 18.4357 17.0603 18.1193C17.3755 17.8028 17.8031 17.625 18.2489 17.625ZM10.8248 8.625C10.8248 9.01172 11.14 9.32812 11.5252 9.32812H13.0661V10.875C13.0661 11.2617 13.3812 11.5781 13.7664 11.5781C14.1517 11.5781 14.4668 11.2617 14.4668 10.875V9.32812H16.0077C16.3929 9.32812 16.7081 9.01172 16.7081 8.625C16.7081 8.23828 16.3929 7.92188 16.0077 7.92188H14.4668V6.375C14.4668 5.98828 14.1517 5.67188 13.7664 5.67188C13.3812 5.67188 13.0661 5.98828 13.0661 6.375V7.92188H11.5252C11.14 7.92188 10.8248 8.23828 10.8248 8.625Z" fill="#637381"/>
</svg>
